<svg width="124" height="123" viewBox="0 0 124 123" fill="none" xmlns="http://www.w3.org/2000/svg">
<path fill-rule="evenodd" clip-rule="evenodd" d="M62 123C95.9655 123 123.5 95.4655 123.5 61.5C123.5 27.5345 95.9655 0 62 0C28.0345 0 0.5 27.5345 0.5 61.5C0.5 95.4655 28.0345 123 62 123ZM94.0195 43.7062C95.4078 42.318 95.4078 40.0671 94.0195 38.6788C92.6312 37.2906 90.3804 37.2906 88.9921 38.6788L53.3793 74.2916L38.5628 59.4751C37.1746 58.0868 34.9237 58.0868 33.5354 59.4751C32.1472 60.8634 32.1472 63.1142 33.5354 64.5025L50.8656 81.8327C51.5323 82.4994 52.4365 82.8739 53.3793 82.8739C54.3222 82.8739 55.2264 82.4994 55.8931 81.8327L94.0195 43.7062Z" fill="black"/>
</svg>
